<svg width="32" height="28" viewBox="0 0 32 28" fill="none" xmlns="http://www.w3.org/2000/svg">
<path d="M16.4946 2.5075L28.4946 6.70747C28.9613 6.8708 29.3346 7.3608 29.3346 7.79246V11.6658C29.3346 12.3075 28.7346 12.8325 28.0013 12.8325H4.0013C3.26797 12.8325 2.66797 12.3075 2.66797 11.6658V7.79246C2.66797 7.3608 3.04131 6.8708 3.50798 6.70747L15.508 2.5075C15.7746 2.41417 16.228 2.41417 16.4946 2.5075Z" stroke="#4F6FDF" stroke-width="2" stroke-miterlimit="10" stroke-linecap="round" stroke-linejoin="round"/>
<path d="M29.3346 25.6667H2.66797V22.1667C2.66797 21.525 3.26797 21 4.0013 21H28.0013C28.7346 21 29.3346 21.525 29.3346 22.1667V25.6667Z" stroke="#4F6FDF" stroke-width="2" stroke-miterlimit="10" stroke-linecap="round" stroke-linejoin="round"/>
<path d="M5.33203 21.0007V12.834" stroke="#4F6FDF" stroke-width="2" stroke-miterlimit="10" stroke-linecap="round" stroke-linejoin="round"/>
<path d="M10.6641 21.0007V12.834" stroke="#4F6FDF" stroke-width="2" stroke-miterlimit="10" stroke-linecap="round" stroke-linejoin="round"/>
<path d="M16 21.0007V12.834" stroke="#4F6FDF" stroke-width="2" stroke-miterlimit="10" stroke-linecap="round" stroke-linejoin="round"/>
<path d="M21.332 21.0007V12.834" stroke="#4F6FDF" stroke-width="2" stroke-miterlimit="10" stroke-linecap="round" stroke-linejoin="round"/>
<path d="M26.668 21.0007V12.834" stroke="#4F6FDF" stroke-width="2" stroke-miterlimit="10" stroke-linecap="round" stroke-linejoin="round"/>
<path d="M1.33594 25.667H30.6693" stroke="#4F6FDF" stroke-width="2" stroke-miterlimit="10" stroke-linecap="round" stroke-linejoin="round"/>
<path d="M16 9.91602C17.1046 9.91602 18 9.13251 18 8.16602C18 7.19952 17.1046 6.41602 16 6.41602C14.8954 6.41602 14 7.19952 14 8.16602C14 9.13251 14.8954 9.91602 16 9.91602Z" stroke="#4F6FDF" stroke-width="2" stroke-miterlimit="10" stroke-linecap="round" stroke-linejoin="round"/>
</svg>
