<svg width="49" height="48" viewBox="0 0 49 48" fill="none" xmlns="http://www.w3.org/2000/svg">
<rect x="0.5" width="48" height="48" rx="24" fill="white"/>
<path d="M28.1083 19.1667L27.8833 18.2667C27.6583 17.375 26.8583 16.75 25.9417 16.75H23.0667C22.15 16.75 21.35 17.375 21.125 18.2667L20.9 19.1667C20.8083 19.525 20.5333 19.8083 20.175 19.8917C19.4083 20.075 18.6583 20.3 17.925 20.575C16.7667 21.0083 16 22.1333 16 23.375V28.25C16 29.9083 17.3417 31.25 19 31.25H30C31.6583 31.25 33 29.9083 33 28.25V23.375C33 22.1333 32.2417 21.0083 31.075 20.575C30.35 20.3 29.5917 20.075 28.825 19.8917C28.4667 19.8083 28.1917 19.525 28.1 19.1667H28.1083Z" stroke="#111827" stroke-width="1.5" stroke-linecap="round" stroke-linejoin="round"/>
<path d="M24.5083 28.25C26.3032 28.25 27.7583 26.7949 27.7583 25C27.7583 23.2051 26.3032 21.75 24.5083 21.75C22.7134 21.75 21.2583 23.2051 21.2583 25C21.2583 26.7949 22.7134 28.25 24.5083 28.25Z" stroke="#111827" stroke-width="1.5" stroke-linecap="round" stroke-linejoin="round"/>
</svg>
