<svg width="26" height="30" viewBox="0 0 26 30" fill="none" xmlns="http://www.w3.org/2000/svg">
<path d="M12.9979 16.5709C15.126 16.5709 16.8512 14.8457 16.8512 12.7176C16.8512 10.5895 15.126 8.86426 12.9979 8.86426C10.8697 8.86426 9.14453 10.5895 9.14453 12.7176C9.14453 14.8457 10.8697 16.5709 12.9979 16.5709Z" stroke="#4F6FDF" stroke-width="2" stroke-linecap="round" stroke-linejoin="round"/>
<path d="M24.1179 12.7834C24.1179 6.58339 19.0512 1.57006 12.8246 1.66339C6.97123 1.75673 2.25123 6.22339 1.90456 12.0634C1.51789 18.4767 6.37123 24.0234 9.78456 27.1034C11.6246 28.7567 14.3979 28.7434 16.2246 27.1034C19.5046 24.1434 24.1179 18.9034 24.1179 12.7967V12.7834Z" stroke="#4F6FDF" stroke-width="2" stroke-linecap="round" stroke-linejoin="round"/>
</svg>
