<svg width="16" height="14" viewBox="0 0 16 14" fill="none" xmlns="http://www.w3.org/2000/svg">
<path d="M0.667969 13.3262H15.3346" stroke="#111827" stroke-miterlimit="10" stroke-linecap="round" stroke-linejoin="round"/>
<path d="M13.1895 13.3327V10.3594" stroke="#111827" stroke-miterlimit="10" stroke-linecap="round" stroke-linejoin="round"/>
<path d="M13.201 5.91895C12.3877 5.91895 11.7344 6.57229 11.7344 7.38562V8.89893C11.7344 9.71226 12.3877 10.3656 13.201 10.3656C14.0144 10.3656 14.6677 9.71226 14.6677 8.89893V7.38562C14.6677 6.57229 14.0144 5.91895 13.201 5.91895Z" stroke="#111827" stroke-miterlimit="10" stroke-linecap="round" stroke-linejoin="round"/>
<path d="M1.40039 13.326V2.67936C1.40039 1.33936 2.06709 0.666016 3.39376 0.666016H7.54708C8.87375 0.666016 9.53373 1.33936 9.53373 2.67936V13.326" stroke="#111827" stroke-miterlimit="10" stroke-linecap="round" stroke-linejoin="round"/>
<path d="M3.86914 3.41895H7.16915" stroke="#111827" stroke-miterlimit="10" stroke-linecap="round" stroke-linejoin="round"/>
<path d="M3.86914 6.08594H7.16915" stroke="#111827" stroke-miterlimit="10" stroke-linecap="round" stroke-linejoin="round"/>
<path d="M3.86914 8.75293H7.16915" stroke="#111827" stroke-miterlimit="10" stroke-linecap="round" stroke-linejoin="round"/>
<path d="M5.50195 13.3259V11.207" stroke="#111827" stroke-miterlimit="10" stroke-linecap="round" stroke-linejoin="round"/>
</svg>
