<svg width="16" height="16" viewBox="0 0 16 16" fill="none" xmlns="http://www.w3.org/2000/svg">
<path d="M13.0007 8.33366C13.0007 7.41366 13.7473 6.66699 14.6673 6.66699V6.00033C14.6673 3.33366 14.0007 2.66699 11.334 2.66699H4.66732C2.00065 2.66699 1.33398 3.33366 1.33398 6.00033V6.33366C2.25398 6.33366 3.00065 7.08033 3.00065 8.00033C3.00065 8.92033 2.25398 9.66699 1.33398 9.66699V10.0003C1.33398 12.667 2.00065 13.3337 4.66732 13.3337H11.334C14.0007 13.3337 14.6673 12.667 14.6673 10.0003C13.7473 10.0003 13.0007 9.25366 13.0007 8.33366Z" stroke="#111827" stroke-linecap="round" stroke-linejoin="round"/>
<path d="M6 9.83301L10 5.83301" stroke="#111827" stroke-linecap="round" stroke-linejoin="round"/>
<path d="M9.99569 9.83333H10.0017" stroke="#111827" stroke-width="1.33333" stroke-linecap="round" stroke-linejoin="round"/>
<path d="M5.99569 6.16634H6.00168" stroke="#111827" stroke-width="1.33333" stroke-linecap="round" stroke-linejoin="round"/>
</svg>
