<svg width="16" height="13" viewBox="0 0 16 13" fill="none" xmlns="http://www.w3.org/2000/svg">
<path d="M7.87301 6.69578L7.73283 11.1845C7.71193 11.5496 8.0673 11.793 8.35996 11.6105L9.23736 11.0503C9.5997 10.8221 9.87145 10.4494 9.99688 10.0083L11.3362 4.88566L14.9178 3.0223C15.4265 2.7561 15.4822 1.98794 15.0153 1.63808C14.0328 0.907948 12.7716 0.80147 11.6985 1.36428L3.93602 5.40284L1.89436 4.5358C1.65744 4.43693 1.39265 4.45975 1.16967 4.59665L0.667969 4.91608L2.52846 7.79859C2.99532 8.52873 3.88027 8.77971 4.61889 8.39183L7.86604 6.70339L7.87301 6.69578Z" stroke="#111827" stroke-linecap="round" stroke-linejoin="round"/>
<path d="M5.97488 4.12892L3.28519 2.15148C3.15976 2.06021 3.16673 1.84725 3.29912 1.76359L4.12833 1.24641C4.53945 0.987823 5.03418 0.934584 5.48711 1.10191L9.15234 2.44049" stroke="#111827" stroke-linecap="round" stroke-linejoin="round"/>
</svg>
