<svg width="26" height="30" viewBox="0 0 26 30" fill="none" xmlns="http://www.w3.org/2000/svg">
<path d="M19.4008 28.6004H6.60078C3.94745 28.6004 1.80078 26.4537 1.80078 23.8004V6.20039C1.80078 3.54706 3.94745 1.40039 6.60078 1.40039H14.8808C15.7341 1.40039 16.5474 1.73372 17.1474 2.33372L23.2674 8.45372C23.8674 9.05372 24.2008 9.86706 24.2008 10.7204V23.8004C24.2008 26.4537 22.0541 28.6004 19.4008 28.6004V28.6004Z" stroke="#4F6FDF" stroke-width="2" stroke-linecap="round" stroke-linejoin="round"/>
<path d="M23.7859 9.4002H20.1992C17.9859 9.4002 16.1992 7.61353 16.1992 5.4002V2.2002" stroke="#4F6FDF" stroke-width="2" stroke-linecap="round" stroke-linejoin="round"/>
<path d="M9.07812 12.2266H16.9181" stroke="#4F6FDF" stroke-width="2" stroke-linecap="round" stroke-linejoin="round"/>
<path d="M9.07812 15.6934H16.9181" stroke="#4F6FDF" stroke-width="2" stroke-linecap="round" stroke-linejoin="round"/>
<path d="M9.07812 12.2266H10.3715C12.2915 12.2266 13.8381 13.7732 13.8381 15.6932C13.8381 17.6132 12.2915 19.1599 10.3715 19.1599H9.07812L13.8381 22.6266" stroke="#4F6FDF" stroke-width="2" stroke-linecap="round" stroke-linejoin="round"/>
</svg>
