<svg width="32" height="32" viewBox="0 0 32 32" fill="none" xmlns="http://www.w3.org/2000/svg">
<path d="M24 25.1463H22.9867C21.92 25.1463 20.9067 25.5596 20.16 26.3063L17.88 28.5597C16.84 29.5863 15.1467 29.5863 14.1067 28.5597L11.8267 26.3063C11.08 25.5596 10.0533 25.1463 9 25.1463H8C5.78667 25.1463 4 23.373 4 21.1864V6.63965C4 4.45298 5.78667 2.67969 8 2.67969H24C26.2133 2.67969 28 4.45298 28 6.63965V21.1864C28 23.3597 26.2133 25.1463 24 25.1463Z" stroke="#4F6FDF" stroke-width="2" stroke-miterlimit="10" stroke-linecap="round" stroke-linejoin="round"/>
<path d="M15.9993 13.3324C17.715 13.3324 19.106 11.9415 19.106 10.2257C19.106 8.50998 17.715 7.11914 15.9993 7.11914C14.2835 7.11914 12.8926 8.50998 12.8926 10.2257C12.8926 11.9415 14.2835 13.3324 15.9993 13.3324Z" stroke="#4F6FDF" stroke-width="2" stroke-linecap="round" stroke-linejoin="round"/>
<path d="M21.3327 20.8788C21.3327 18.4788 18.946 16.5322 15.9993 16.5322C13.0527 16.5322 10.666 18.4788 10.666 20.8788" stroke="#4F6FDF" stroke-width="2" stroke-linecap="round" stroke-linejoin="round"/>
</svg>
