<svg width="32" height="27" viewBox="0 0 32 27" fill="none" xmlns="http://www.w3.org/2000/svg">
<path d="M12.082 1.60547H19.922" stroke="#4F6FDF" stroke-width="2" stroke-linecap="round" stroke-linejoin="round"/>
<path d="M12.082 5.07227H19.922" stroke="#4F6FDF" stroke-width="2" stroke-linecap="round" stroke-linejoin="round"/>
<path d="M12.082 1.60547H13.3754C15.2954 1.60547 16.842 3.15214 16.842 5.07214C16.842 6.99214 15.2954 8.5388 13.3754 8.5388H12.082L16.842 12.0055" stroke="#4F6FDF" stroke-width="2" stroke-linecap="round" stroke-linejoin="round"/>
<path d="M25.7324 14.1436C25.7324 14.1436 26.1858 11.0902 26.5191 9.1169C26.6924 8.1569 27.5858 7.50357 28.5591 7.62357C29.5858 7.74357 30.3324 8.65023 30.2658 9.6769L29.7191 18.4636C29.6391 19.7569 29.2924 21.0102 28.7191 22.1702L26.8603 25.8773" stroke="#4F6FDF" stroke-width="2" stroke-linecap="round" stroke-linejoin="round"/>
<path d="M23.4674 19.7043L26.1074 17.3443C26.8941 16.6377 26.9874 15.4377 26.3074 14.6243C25.6408 13.8243 24.4541 13.7177 23.6541 14.371C22.4808 15.331 20.8141 16.7043 19.5608 17.731C18.4541 18.6377 17.8008 20.011 17.8008 21.4377V26.0021" stroke="#4F6FDF" stroke-width="2" stroke-linecap="round" stroke-linejoin="round"/>
<path d="M6.26598 14.2901C6.26598 14.2901 5.81265 11.2367 5.47932 9.26338C5.30599 8.30338 4.41265 7.65005 3.43932 7.77005C2.41265 7.89005 1.66598 8.79672 1.73265 9.82338L2.27932 18.6101C2.35932 19.9034 2.70598 21.1567 3.27932 22.3167L5.06033 25.8687" stroke="#4F6FDF" stroke-width="2" stroke-linecap="round" stroke-linejoin="round"/>
<path d="M8.53377 19.8499L5.89377 17.4899C5.1071 16.7832 5.01377 15.5832 5.69377 14.7699C6.36044 13.9699 7.54711 13.8632 8.34711 14.5165C9.52044 15.4765 11.1871 16.8499 12.4404 17.8765C13.5471 18.7832 14.2004 20.1565 14.2004 21.5832V25.92" stroke="#4F6FDF" stroke-width="2" stroke-linecap="round" stroke-linejoin="round"/>
</svg>
