<svg width="18" height="18" viewBox="0 0 18 18" fill="none" xmlns="http://www.w3.org/2000/svg">
<path d="M2.3358 11.2069L1.06914 9.94025C0.552474 9.42359 0.552474 8.57358 1.06914 8.05691L2.3358 6.79023C2.55246 6.57356 2.72747 6.14856 2.72747 5.84856V4.05687C2.72747 3.32354 3.32747 2.72356 4.0608 2.72356H5.85247C6.15247 2.72356 6.57747 2.54858 6.79414 2.33192L8.06079 1.06523C8.57746 0.548568 9.42747 0.548568 9.94414 1.06523L11.2108 2.33192C11.4275 2.54858 11.8525 2.72356 12.1525 2.72356H13.9442C14.6775 2.72356 15.2775 3.32354 15.2775 4.05687V5.84856C15.2775 6.14856 15.4525 6.57356 15.6691 6.79023L16.9358 8.05691C17.4525 8.57358 17.4525 9.42359 16.9358 9.94025L15.6691 11.2069C15.4525 11.4236 15.2775 11.8486 15.2775 12.1486V13.9402C15.2775 14.6735 14.6775 15.2736 13.9442 15.2736H12.1525C11.8525 15.2736 11.4275 15.4486 11.2108 15.6653L9.94414 16.9319C9.42747 17.4486 8.57746 17.4486 8.06079 16.9319L6.79414 15.6653C6.57747 15.4486 6.15247 15.2736 5.85247 15.2736H4.0608C3.32747 15.2736 2.72747 14.6735 2.72747 13.9402V12.1486C2.72747 11.8403 2.55246 11.4153 2.3358 11.2069Z" fill="#00875F" stroke="#00875F" stroke-linecap="round" stroke-linejoin="round"/>
<path d="M6.35547 8.99474L8.06709 10.7904L11.6504 7.20703" stroke="white" stroke-width="1.5" stroke-linecap="round" stroke-linejoin="round"/>
</svg>
