<svg width="33" height="32" viewBox="0 0 33 32" fill="none" xmlns="http://www.w3.org/2000/svg">
<g clip-path="url(#clip0_8340_106535)">
<path d="M16.0766 17.3911L15.7962 26.3686C15.7544 27.0987 16.4652 27.5855 17.0505 27.2204L18.8053 26.1C19.53 25.6437 20.0735 24.8984 20.3243 24.0161L23.0029 13.7708L30.1661 10.0441C31.1835 9.51171 31.295 7.97539 30.3612 7.27568C28.3962 5.81541 25.8738 5.60245 23.7276 6.72807L8.2026 14.8052L4.11928 13.0711C3.64545 12.8734 3.11587 12.919 2.66991 13.1928L1.6665 13.8317L5.38748 19.5967C6.32121 21.057 8.09111 21.5589 9.56835 20.7832L16.0626 17.4063L16.0766 17.3911Z" stroke="#111827" stroke-width="2" stroke-linecap="round" stroke-linejoin="round"/>
<path d="M12.2818 12.2574L6.9024 8.30246C6.65155 8.11993 6.66549 7.69402 6.93028 7.52669L8.58869 6.49234C9.41093 5.97516 10.4004 5.86868 11.3063 6.20333L18.6367 8.88049" stroke="#111827" stroke-width="2" stroke-linecap="round" stroke-linejoin="round"/>
</g>
<defs>
<clipPath id="clip0_8340_106535">
<rect width="32" height="32" fill="white" transform="translate(0.333252)"/>
</clipPath>
</defs>
</svg>
